<?xml version="1.0" encoding="iso-8859-1"?>
<!-- Generator: Adobe Illustrator 16.0.0, SVG Export Plug-In . SVG Version: 6.00 Build 0)  -->
<!DOCTYPE svg PUBLIC "-//W3C//DTD SVG 1.1//EN" "http://www.w3.org/Graphics/SVG/1.1/DTD/svg11.dtd">
<svg version="1.1" id="Capa_1" xmlns="http://www.w3.org/2000/svg" xmlns:xlink="http://www.w3.org/1999/xlink" x="0px" y="0px"
	 width="375.906px" height="375.907px" viewBox="0 0 375.906 375.907" style="enable-background:new 0 0 375.906 375.907;"
	 xml:space="preserve">
<g>
	<g>
		<path d="M110.167,200.932h155.4c0.061,0,0.12,0,0.181,0c7.975,0,14.424-6.467,14.424-14.426c0-1.667-0.276-3.288-0.805-4.777
			L260.529,75.057c-1.213-6.894-7.193-11.917-14.195-11.917H129.388c-7.005,0-12.985,5.017-14.205,11.917L95.956,184.011
			c-0.738,4.195,0.412,8.503,3.156,11.769C101.841,199.041,105.9,200.932,110.167,200.932z"/>
		<path d="M164.792,220.526c-1.204-6.881-7.188-11.913-14.189-11.913H33.65c-7.004,0-12.988,5.032-14.204,11.913L0.219,329.477
			c-0.738,4.209,0.412,8.521,3.153,11.781c2.732,3.267,6.788,5.158,11.052,5.158h155.401c0.078,0,0.129,0,0.189,0
			c7.968,0,14.42-6.467,14.42-14.43c0-1.675-0.285-3.291-0.814-4.773L164.792,220.526z"/>
		<path d="M375.096,327.213l-18.832-106.688c-1.213-6.881-7.188-11.913-14.201-11.913H225.119c-7.001,0-12.988,5.032-14.201,11.913
			l-19.23,108.951c-0.735,4.209,0.415,8.521,3.162,11.781c2.726,3.267,6.785,5.158,11.049,5.158h155.397c0.084,0,0.133,0,0.187,0
			c7.975,0,14.424-6.467,14.424-14.43C375.906,330.312,375.617,328.696,375.096,327.213z"/>
		<path d="M288.65,91.978h19.228v19.228c0,7.966,6.448,14.427,14.417,14.427s14.418-6.461,14.418-14.427V91.978h19.233
			c7.974,0,14.423-6.461,14.423-14.423c0-7.963-6.449-14.415-14.423-14.415h-19.233V43.913c0-7.962-6.449-14.423-14.418-14.423
			s-14.417,6.461-14.417,14.423V63.14H288.65c-7.975,0-14.424,6.452-14.424,14.415C274.227,85.517,280.676,91.978,288.65,91.978z"/>
	</g>
</g>
<g>
</g>
<g>
</g>
<g>
</g>
<g>
</g>
<g>
</g>
<g>
</g>
<g>
</g>
<g>
</g>
<g>
</g>
<g>
</g>
<g>
</g>
<g>
</g>
<g>
</g>
<g>
</g>
<g>
</g>
</svg>
