<svg id="Layer_1" enable-background="new 0 0 256 256" height="512" viewBox="0 0 256 256" width="512" xmlns="http://www.w3.org/2000/svg"><g><path d="m220.7 82.6v-23.1c0-3.1-2.5-5.6-5.6-5.6h-174.3c-3.1 0-5.6 2.5-5.6 5.6v23.2h185.5z" fill="#87d147"/><path d="m207.6 53.9v-20.6c0-2.6-2.1-4.8-4.8-4.8h-149.6c-2.6 0-4.8 2.1-4.8 4.8v20.6z" fill="#87d147"/><path d="m201.5 82.6c-6-3.7-10.5-9.4-12.5-16.2-.3-1-1.2-1.6-2.2-1.6h-117.6c-1 0-1.9.7-2.2 1.6-2 6.7-6.5 12.5-12.5 16.2z" fill="#b2e26d"/><path d="m192.4 53.9c-5.8-3.1-10.1-8.3-12-14.6-.3-.8-1-1.4-1.9-1.4h-101c-.9 0-1.6.6-1.9 1.4-1.9 6.3-6.2 11.5-12 14.6z" fill="#b2e26d"/><path d="m112.7 4.9h-2.1v-2.1c0-1.5-1.3-2.8-2.8-2.8s-2.8 1.3-2.8 2.8v2.1h-2.1c-1.5 0-2.8 1.3-2.8 2.8s1.3 2.8 2.8 2.8h2.1v2.1c0 1.5 1.3 2.8 2.8 2.8s2.8-1.3 2.8-2.8v-2.1h2.1c1.5 0 2.8-1.3 2.8-2.8s-1.3-2.8-2.8-2.8z" fill="#70d6f9"/><path d="m170.8 247.8c-4-.7-7.1-3.8-7.9-7.7 0-.1-.1-.2-.2-.1-.1 0-.1.1-.1.1-.8 4-3.9 7-7.9 7.7-.1 0-.2.1-.2.2s.1.1.2.2c4 .7 7.1 3.8 7.9 7.7 0 .1.1.2.2.1.1 0 .1-.1.1-.1.8-4 3.9-7 7.9-7.7.1 0 .2-.1.2-.2 0-.2-.1-.2-.2-.2z" fill="#f5c84c"/><path d="m178.3 13.4c-2.7-.5-4.8-2.6-5.4-5.3 0-.1-.1-.1-.1-.1-.1 0-.1 0-.1.1-.5 2.7-2.7 4.8-5.4 5.3-.1 0-.1.1-.1.1 0 .1 0 .1.1.1 2.7.5 4.8 2.6 5.4 5.3 0 .1.1.1.1.1.1 0 .1 0 .1-.1.5-2.7 2.7-4.8 5.4-5.3 0 0 .1-.1 0-.2z" fill="#fc657e"/><circle cx="83" cy="15" fill="#f5c84c" r="3"/><g fill="#87d147"><circle cx="179" cy="230" r="3"/><circle cx="31" cy="42" r="3"/><path d="m226.9 82.6h-197.8c-3.5 0-6.3 2.8-6.3 6.3v113.1c0 3.5 2.8 6.3 6.3 6.3h92v-10.7c0-3.8 3.1-6.9 6.9-6.9s6.9 3.1 6.9 6.9v10.7h92c3.5 0 6.3-2.8 6.3-6.3v-113c0-3.5-2.8-6.3-6.3-6.4z"/></g><path d="m218.9 118.6c-10.4-3.1-18.5-11.3-21.7-21.7-.3-1.1-1.4-1.9-2.5-1.9h-133.4c-1.2 0-2.2.8-2.5 1.9-3.1 10.4-11.3 18.5-21.7 21.7-1.1.3-1.9 1.4-1.9 2.5v48.8c0 1.2.8 2.2 1.9 2.5 10.4 3.1 18.5 11.3 21.7 21.7.3 1.1 1.4 1.9 2.5 1.9h60c.9-3.7 4.7-5.9 8.4-5 2.5.6 4.4 2.5 5 5h60c1.2 0 2.2-.8 2.5-1.9 3.1-10.4 11.3-18.5 21.7-21.7 1.1-.3 1.9-1.4 1.9-2.5v-48.8c0-1.1-.8-2.1-1.9-2.5z" fill="#b2e26d"/><circle cx="128" cy="145.5" fill="#87d147" r="35.5"/><path d="m132.3 163.7h-13.9c-1.4 0-2.5-1.1-2.5-2.5s1.1-2.5 2.5-2.5h13.9c2.9 0 5.3-2.4 5.3-5.3s-2.4-5.3-5.3-5.3h-8.7c-5.7.1-10.4-4.5-10.4-10.2-.1-5.7 4.5-10.4 10.2-10.4h.2 12.4c1.4 0 2.5 1.1 2.5 2.5s-1.1 2.5-2.5 2.5h-12.3c-2.9 0-5.4 2.3-5.4 5.3 0 2.9 2.3 5.4 5.3 5.4h.1 8.7c5.7 0 10.3 4.6 10.3 10.3s-4.7 10.2-10.4 10.2z"/><path d="m128 169c-1.4 0-2.5-1.1-2.5-2.5v-42c0-1.4 1.1-2.5 2.5-2.5s2.5 1.1 2.5 2.5v42c0 1.4-1.1 2.5-2.5 2.5z"/><path d="m226.9 210.9h-92c-1.4 0-2.5-1.1-2.5-2.5v-10.7c0-2.4-2-4.4-4.4-4.4s-4.4 2-4.4 4.4v10.7c0 1.4-1.1 2.5-2.5 2.5h-92c-4.9 0-8.8-4-8.8-8.8v-113.1c0-4.9 4-8.8 8.8-8.8h197.8c4.9 0 8.8 4 8.8 8.8v113.1c0 4.9-3.9 8.8-8.8 8.8zm-89.5-5h89.5c2.1 0 3.8-1.7 3.8-3.8v-113.1c0-2.1-1.7-3.8-3.8-3.8h-197.8c-2.1 0-3.8 1.7-3.8 3.8v113.1c0 2.1 1.7 3.8 3.8 3.8h89.5v-8.2c0-5.2 4.2-9.4 9.4-9.4s9.4 4.2 9.4 9.4z"/><path d="m73.2 148h-7.5c-1.4 0-2.5-1.1-2.5-2.5s1.1-2.5 2.5-2.5h7.5c1.4 0 2.5 1.1 2.5 2.5s-1.1 2.5-2.5 2.5z"/><path d="m190.3 148h-7.5c-1.4 0-2.5-1.1-2.5-2.5s1.1-2.5 2.5-2.5h7.5c1.4 0 2.5 1.1 2.5 2.5s-1.2 2.5-2.5 2.5z"/><path d="m194.7 198.5h-60c-1.1 0-2.1-.8-2.4-1.9-.6-2.4-3-3.8-5.4-3.2-1.6.4-2.8 1.6-3.2 3.2-.3 1.1-1.3 1.9-2.4 1.9h-60c-2.3 0-4.2-1.5-4.9-3.6-2.9-9.6-10.4-17.1-20-20-2.2-.7-3.6-2.7-3.6-4.9v-48.8c0-2.3 1.5-4.2 3.6-4.9 9.6-2.9 17.1-10.4 20-20 .6-2.2 2.6-3.6 4.9-3.6h133.5c2.3 0 4.2 1.5 4.9 3.6 2.9 9.6 10.4 17.1 20 20 2.2.7 3.6 2.7 3.6 4.9v48.8c0 2.3-1.5 4.2-3.6 4.9-9.6 2.9-17.1 10.4-20 20-.7 2.1-2.7 3.6-5 3.6zm-58.3-5h58.3c.1 0 .1 0 .1-.1 3.4-11.2 12.1-20 23.3-23.3 0 0 .1-.1.1-.1v-48.8c0-.1 0-.1-.1-.1-11.2-3.4-20-12.1-23.3-23.3 0 0-.1-.1-.1-.1h-133.4c-.1 0-.1 0-.1.1-3.4 11.2-12.1 20-23.3 23.3 0 0-.1.1-.1.1v48.8c0 .1 0 .1.1.1 11.2 3.4 20 12.1 23.3 23.3 0 0 .1.1.1.1h58.3c2.3-4.6 8-6.5 12.6-4.2 1.8.9 3.3 2.3 4.2 4.2z"/><path d="m220.7 85.1h-185.4c-1.4 0-2.5-1.1-2.5-2.5v-23.1c0-4.5 3.6-8.1 8.1-8.1h174.3c4.5 0 8.1 3.6 8.1 8.1v23.2c-.1 1.3-1.2 2.4-2.6 2.4zm-182.9-5h180.5v-20.6c0-1.7-1.4-3.1-3.1-3.1h-174.4c-1.7 0-3.1 1.4-3.1 3.1z"/><path d="m207.6 56.4h-159.2c-1.4 0-2.5-1.1-2.5-2.5v-20.6c0-4 3.3-7.3 7.3-7.3h149.6c4 0 7.3 3.3 7.3 7.3v20.6c0 1.4-1.1 2.5-2.5 2.5zm-156.7-5h154.2v-18.1c0-1.3-1-2.3-2.3-2.3h-149.6c-1.3 0-2.3 1-2.3 2.3z"/><path d="m128 183.5c-21 0-38-17-38-38s17-38 38-38 38 17 38 38-17 38-38 38zm0-71c-18.2 0-33 14.8-33 33s14.8 33 33 33 33-14.8 33-33-14.8-32.9-33-33z"/><path d="m103.8 229.3 19.3 19.3c2.7 2.7 7.1 2.7 9.8 0l19.3-19.3c2.7-2.7 2.8-7.1.1-9.8s-7.1-2.8-9.8-.1c0 0-.1.1-.1.1l-7.4 7.4v-29.3c0-3.8-3.1-6.9-6.9-6.9s-6.9 3.1-6.9 6.9v29.3l-7.4-7.4c-2.7-2.7-7.1-2.6-9.8.1-2.8 2.7-2.8 7-.2 9.7z" fill="#29589f"/><path d="m103.8 229.3 19.3 19.3c2.7 2.7 7.1 2.7 9.8 0l19.3-19.3c2.7-2.7 2.8-7.1.1-9.8s-7.1-2.8-9.8-.1c0 0-.1.1-.1.1l-7.4 7.4v-29.3c0-3.8-3.1-6.9-6.9-6.9s-6.9 3.1-6.9 6.9v29.3l-7.4-7.4c-2.7-2.7-7.1-2.6-9.8.1-2.8 2.7-2.8 7-.2 9.7z" fill="#70d6f9"/><path d="m128 253.1c-2.5 0-4.9-1-6.7-2.8l-19.2-19.3c-3.6-3.7-3.5-9.7.2-13.3s9.5-3.6 13.1 0l3.2 3.2v-23.2c0-5.2 4.2-9.4 9.4-9.4s9.4 4.2 9.4 9.4v23.2l3.2-3.2c3.7-3.7 9.7-3.6 13.3.1s3.6 9.6 0 13.2l-19.3 19.3c-1.7 1.8-4.1 2.8-6.6 2.8zm-22.4-25.6 19.3 19.3c1.7 1.7 4.5 1.7 6.3 0l19.3-19.3c1.7-1.7 1.8-4.5.1-6.3-1.7-1.7-4.5-1.8-6.3-.1 0 0 0 0-.1.1l-7.4 7.4c-1 1-2.6 1-3.5 0-.5-.5-.7-1.1-.7-1.8v-29.3c0-2.4-2-4.4-4.4-4.4s-4.4 2-4.4 4.4v29.3c0 1.4-1.1 2.5-2.5 2.5-.7 0-1.3-.3-1.8-.7l-7.4-7.4c-1.7-1.7-4.5-1.8-6.3-.1-1.9 1.8-2 4.6-.2 6.4z"/><path d="m128 253.1c-2.5 0-4.9-1-6.7-2.8l-19.2-19.3c-3.6-3.7-3.5-9.7.2-13.3s9.5-3.6 13.1 0l3.2 3.2v-23.2c0-5.2 4.2-9.4 9.4-9.4s9.4 4.2 9.4 9.4v23.2l3.2-3.2c3.7-3.7 9.7-3.6 13.3.1s3.6 9.6 0 13.2l-19.3 19.3c-1.7 1.8-4.1 2.8-6.6 2.8zm-22.4-25.6 19.3 19.3c1.7 1.7 4.5 1.7 6.3 0l19.3-19.3c1.7-1.7 1.8-4.5.1-6.3-1.7-1.7-4.5-1.8-6.3-.1 0 0 0 0-.1.1l-7.4 7.4c-1 1-2.6 1-3.5 0-.5-.5-.7-1.1-.7-1.8v-29.3c0-2.4-2-4.4-4.4-4.4s-4.4 2-4.4 4.4v29.3c0 1.4-1.1 2.5-2.5 2.5-.7 0-1.3-.3-1.8-.7l-7.4-7.4c-1.7-1.7-4.5-1.8-6.3-.1-1.9 1.8-2 4.6-.2 6.4z"/><path d="m201.5 85.1h-147c-1.4 0-2.5-1.1-2.5-2.5 0-.9.5-1.7 1.2-2.1 5.5-3.3 9.6-8.6 11.4-14.7.6-2 2.5-3.4 4.6-3.4h117.6c2.1 0 4 1.4 4.6 3.4 1.9 6.2 5.9 11.4 11.4 14.7 1.2.7 1.6 2.3.8 3.4-.4.8-1.2 1.2-2.1 1.2zm-139.8-5h132.7c-3.6-3.6-6.2-8-7.7-12.8h-117.4c-1.5 4.9-4.1 9.3-7.6 12.8z"/><path d="m192.4 56.4h-128.8c-1.4 0-2.5-1.1-2.5-2.5 0-.9.5-1.8 1.3-2.2 5.2-2.8 9.1-7.5 10.8-13.1.6-1.9 2.3-3.2 4.3-3.2h101c2 0 3.7 1.3 4.3 3.2 1.7 5.6 5.6 10.3 10.8 13.1 1.2.6 1.7 2.2 1 3.4-.4.8-1.3 1.3-2.2 1.3zm-121.2-5h113.7c-3.1-3.1-5.4-6.8-6.7-11h-100.3c-1.3 4.1-3.6 7.9-6.7 11z"/></g></svg>