<svg height="512" viewBox="0 0 60 52" width="512" xmlns="http://www.w3.org/2000/svg"><g id="Page-1" fill="none" fill-rule="evenodd"><g id="068---Weighing-Yield" fill="rgb(0,0,0)" fill-rule="nonzero" transform="translate(-1)"><path id="Shape" d="m42.142 42.606c-.1901643-.9325976-1.0092155-1.6033758-1.961-1.606h-18.362c-.9520912.0027217-1.771249.674005-1.961 1.607l-.6 3c-.1178013.5878093.0342908 1.1974624.4143896 1.6610589.3800988.4635966.9481133.7322386 1.5476104.7319411h19.56c.599322-.0000023 1.1670553-.2687718 1.5469272-.7323279s.5318396-1.0730346.4140728-1.6606721zm-20.922 3.394.6-3h18.361l.6 3z"/><path id="Shape" d="m41.885 19.879c1.2637727-.35857 2.1847865-1.4463941 2.33-2.752l1.532-13.8c.0929096-.84730202-.1789978-1.6941248-.747807-2.32895474-.5688091-.63482994-1.3808123-.99772555-2.233193-.99804526h-23.532c-.8531588.0001945-1.6658805.36363067-2.2348294.99937995-.5689488.63574927-.8403025 1.4836701-.7461706 2.33162005l1.532 13.8c.1454542 1.3050727 1.0665361 2.3921865 2.33 2.75l1.732 12.119h-13.847c-1.65685425 0-3 1.3431458-3 3v2.2c-.93064421.3547603-1.62304404 1.1503074-1.846 2.121l-2.077 9c-.20713607.8914322.0039583 1.8286591.57326533 2.5452108.56930702.7165517 1.43455342 1.1340486 2.34973467 1.1337892h54c.914474.0002816 1.779142-.416552 2.3485076-1.1321535.5693657-.7156015.7812491-1.6518207.5754924-2.5428465l-2.077-9c-.2219615-.9724343-.914965-1.7697449-1.847-2.125v-2.2c0-1.6568542-1.3431458-3-3-3h-13.847zm-23.396-17.546c.1887515-.21316058.4602857-.33453092.745-.333h23.532c.2842052.00026475.5548726.12144708.7443625.33326359s.2799002.49425579.2486375.77673641l-1.023 9.211c-.236-.083-.47-.168-.708-.257-1.8045625-.747432-3.7453096-1.109832-5.698-1.064-1.947009-.0448932-3.8819484.3171629-5.681 1.063-1.5785026.6600354-3.2785833.9793329-4.989.937-1.7080988.0412963-3.4058036-.2769169-4.983-.934-.47-.175-.953-.354-1.5-.515l-.936-8.441c-.032687-.2825902.057643-.56560015.248-.777zm40.293 47.289c-.1894833.2385352-.4773644.37769-.782.378h-54c-.30510372.0002663-.59363731-.1387688-.78354452-.3775649-.18990722-.2387962-.26040906-.5512251-.19145548-.8484351l1.103-4.774h10.872c.5522847 0 1-.4477153 1-1s-.4477153-1-1-1h-10.41l.51-2.225c.10269974-.4564837.51012633-.7793422.978-.775h49.844c.4659489-.0021794.8708764.3196007.974.774l.514 2.226h-10.41c-.5522847 0-1 .4477153-1 1s.4477153 1 1 1h10.872l1.1 4.774c.0701295.2968464.0000871.6094568-.19.848zm-3.782-14.622v2h-48v-2c0-.5522847.44771525-1 1-1h46c.5522847 0 1 .4477153 1 1zm-31.133-3-1.714-12h2.847c.5522847 0 1-.4477153 1-1s-.4477153-1-1-1h-4c-.6268875.0002761-1.1536857-.4709563-1.223-1.094l-.351-3.166c.184.066.369.13.555.2 1.7989368.7435767 3.7329543 1.1045661 5.679 1.06 1.9506925.0451707 3.8893461-.3172199 5.692-1.064 1.5748719-.6591829 3.2712584-.9781499 4.978-.936 1.7140446-.0431339 3.4178792.2761647 5 .937.374.14.768.279 1.183.413l-.283 2.555c-.069564.6258824-.6002725 1.0983424-1.23 1.095h-12c-.5522847 0-1 .4477153-1 1s.4477153 1 1 1h10.847l-1.714 12z"/><path id="Shape" d="m21.805 9.021c.037063.00032977.0741168-.00133932.111-.005.2638261-.02914836.5052401-.16198987.6710538-.36925699s.2424218-.47195326.2129462-.73574301l-.213-1.911h3.413c.5522847 0 1-.44771525 1-1s-.4477153-1-1-1h-4.53c-.2843795-.00001946-.5553168.12103987-.7450288.33289131s-.2802529.49445496-.2489712.77710869l.336 3.022c.0565008.50587198.4839827.88858238.993.889z"/></g></g></svg>