<svg height="512" viewBox="0 0 56 48" width="512" xmlns="http://www.w3.org/2000/svg"><g id="Page-1" fill="none" fill-rule="evenodd"><g id="068---Weighing-Yield" fill="rgb(0,0,0)" fill-rule="nonzero"><path id="Shape" d="m52 33c0-.5522847-.4477153-1-1-1h-46c-.55228475 0-1 .4477153-1 1v2h48z"/><path id="Shape" d="m26 16h12c.6285827.0018051 1.1575569-.4702624 1.227-1.095l.283-2.555c-.415-.134-.809-.273-1.183-.413-1.5821208-.6608353-3.2859554-.9801339-5-.937-1.7067416-.0421499-3.4031281.2768171-4.978.936-1.8017248.7463694-3.7393136 1.108752-5.689 1.064-1.9474577.0448066-3.8828972-.3165345-5.683-1.061-.186-.069-.371-.133-.555-.2l.351 3.166c.0690063.6249629.598243 1.0972646 1.227 1.095h4c.5522847 0 1 .4477153 1 1s-.4477153 1-1 1h-2.847l1.714 12h14.266l1.714-12h-10.847c-.5522847 0-1-.4477153-1-1s.4477153-1 1-1z"/><path id="Shape" d="m17.677 10.066c1.5771964.6570831 3.2749012.9752963 4.983.934 1.7104167.0423329 3.4104974-.2769646 4.989-.937 1.7990516-.7458371 3.733991-1.10789318 5.681-1.063 1.9533611-.04611143 3.8948181.31629387 5.7 1.064.238.089.472.174.708.257l1.021-9.211c.0312627-.28248062-.0591476-.5649199-.2486375-.77673641s-.4601573-.33299884-.7443625-.33326359h-23.532c-.2842052.00026475-.5548726.12144708-.7443625.33326359s-.2799002.49425579-.2486375.77673641l.938 8.441c.545.161 1.028.34 1.498.515zm.048-7.733c.1896857-.21188425.4606136-.33298359.745-.333h4.53c.5522847 0 1 .44771525 1 1s-.4477153 1-1 1h-3.413l.213 1.911c.0294756.26378975-.0471325.52847589-.2129462.73574301s-.4072277.34010863-.6710538.36925699c-.0368832.00366068-.073937.00532977-.111.005-.5090173-.00041762-.9364992-.38312802-.993-.889l-.336-3.022c-.0312421-.28262175.0593074-.56517974.249-.777z"/><path id="Shape" d="m18.819 41-.599 3h19.562l-.601-3z"/><path id="Shape" d="m55.974 46.774-1.102-4.774h-10.872c-.5522847 0-1-.4477153-1-1s.4477153-1 1-1h10.41l-.51-2.226c-.1034445-.4558715-.5105569-.7780648-.978-.774h-49.844c-.46637931-.0024526-.87161763.3199906-.974.775l-.514 2.225h10.41c.5522847 0 1 .4477153 1 1s-.4477153 1-1 1h-10.872l-1.1 4.774c-.06883534.2966977.00129979.6085927.19052181.8472617.18922202.2386689.47690076.3780905.78147819.3787383h54c.3051037.0002663.5936373-.1387688.7835445-.3775649.1899072-.2387962.2604091-.5512251.1914555-.8484351zm-16.647-1.506c-.3794128.464143-.9475153.7329543-1.547.732h-19.56c-.599322-.0000023-1.1670553-.2687718-1.5469272-.7323279s-.5318396-1.0730346-.4140728-1.6606721l.6-3c.1896749-.9326282 1.0082848-1.6038049 1.96-1.607h18.362c.9517845.0026242 1.7708357.6734024 1.961 1.606l.6 3c.1191005.5882297-.0333597 1.1988049-.415 1.662z"/></g></g></svg>