<svg height="512" viewBox="0 0 58 50" width="512" xmlns="http://www.w3.org/2000/svg"><g id="Page-1" fill="none" fill-rule="evenodd"><g id="068---Weighing-Yield" fill-rule="nonzero"><path id="Shape" d="m39 18-2 14-8 2-8-2-2-14 10-2z" fill="#e57e25"/><path id="Shape" d="m34.33 11c3.88 0 4.94 1.05 7.27 1.63l-.38 3.39c-.1273983 1.1292457-1.0835925 1.9820676-2.22 1.98h-20c-1.1364075.0020676-2.0926017-.8507543-2.22-1.98l-.52-4.68z" fill="#f29c1f"/><path id="Shape" d="m42.75 2.22-1.15 10.41c-2.33-.58-3.39-1.63-7.27-1.63-5.33 0-5.33 2-10.67 2-3.94 0-4.97-1.09-7.4-1.66l-1.01-9.12c-.0624149-.56392459.117622-1.12782093.4952706-1.55124514.3776486-.42342422.9173657-.66652469 1.4847294-.66875486h23.54c.5673637.00223017 1.1070808.24533064 1.4847294.66875486.3776486.42342421.5576855.98732055.4952706 1.55124514z" fill="#9fc9d3"/><path id="Shape" d="m19.805 8.021c-.5090173-.00041762-.9364992-.38312802-.993-.889l-.336-3.022c-.0312817-.28265373.0592592-.56525725.2489712-.77710869s.4606493-.33291077.7450288-.33289131h4.53c.5522847 0 1 .44771525 1 1s-.4477153 1-1 1h-3.413l.213 1.911c.0294756.26378975-.0471325.52847589-.2129462.73574301s-.4072277.34010863-.6710538.36925699c-.0368832.00366068-.073937.00532977-.111.005z" fill="#fff"/><path id="Shape" d="m57.952 47.55-1.28-5.55-.8-3.45c-.2096287-.9077944-1.0183163-1.5505974-1.95-1.55l-24.922-2-24.918 2c-.93168369-.0005974-1.74037132.6422056-1.95 1.55l-.8 3.45-1.28 5.55c-.13711854.5937894.00397403 1.2176981.38324658 1.6947093.37927254.4770111.95533791.7550721 1.56475342.7552907h54c.6101168.0010015 1.1873225-.2765432 1.5675092-.7537241.3801866-.477181.5217681-1.1018026.3844908-1.6962759z" fill="#2980ba"/><path id="Shape" d="m6 32h46c1.1045695 0 2 .8954305 2 2v3h-50v-3c0-1.1045695.8954305-2 2-2z" fill="#bdc3c7"/><path id="Shape" d="m56.672 42h-55.34l.8-3.45c.20962868-.9077944 1.01831631-1.5505974 1.95-1.55h49.84c.9316837-.0005974 1.7403713.6422056 1.95 1.55z" fill="#3b97d3"/><path id="Shape" d="m38.783 46h-19.561c-.3003227.0000613-.5847717-.1348558-.7747362-.3674654s-.2653283-.5382796-.2052638-.8325346l.6-3c.0950537-.4656663.5047314-.800097.98-.8h18.361c.4752686-.000097.8849463.3343337.98.8l.6 3c.0600645.294255-.0152993.599925-.2052638.8325346s-.4744135.3675267-.7747362.3674654z" fill="#81ccb8"/><path id="Shape" d="m38.783 47h-19.561c-.599322-.0000023-1.1670553-.2687718-1.5469272-.7323279s-.5318396-1.0730346-.4140728-1.6606721l.6-3c.1872772-.9344837 1.0079352-1.6069964 1.961-1.607h18.361c.953373.0000991 1.7741389.6731187 1.961 1.608l.6 3c.1174253.5874881-.0347012 1.196676-.4145327 1.6599891-.3798315.463313-.9473589.7319487-1.5464673.7320109zm-.6-5h-18.361l-.6 3h19.563z" fill="#285680"/></g></g></svg>