<?xml version="1.0" encoding="iso-8859-1"?>
<!-- Generator: Adobe Illustrator 19.0.0, SVG Export Plug-In . SVG Version: 6.00 Build 0)  -->
<svg version="1.1" id="Capa_1" xmlns="http://www.w3.org/2000/svg" xmlns:xlink="http://www.w3.org/1999/xlink" x="0px" y="0px"
	 viewBox="0 0 512.008 512.008" style="enable-background:new 0 0 512.008 512.008;" xml:space="preserve">
<path style="fill:#455A64;" d="M463.861,16.072c-21.691-20.713-55.834-20.713-77.525,0l-31.253,31.253
	c-1.999,2.004-3.12,4.721-3.115,7.552v62.464c0,5.891,4.776,10.667,10.667,10.667h62.485c2.831,0.005,5.548-1.115,7.552-3.115
	l31.253-31.253c21.42-21.386,21.447-56.087,0.062-77.506c-0.021-0.021-0.041-0.041-0.062-0.062H463.861z"/>
<path style="fill:#4CAF50;" d="M362.634,0.008h-85.333c-5.891,0-10.667,4.776-10.667,10.667v85.333
	c0.001,4.896,3.335,9.162,8.085,10.347l85.333,21.333c0.845,0.209,1.711,0.316,2.581,0.32c5.891,0,10.667-4.776,10.667-10.667
	V10.675C373.301,4.784,368.525,0.008,362.634,0.008z"/>
<path style="fill:#F44336;" d="M306.186,109.79L199.52,3.123c-4.165-4.164-10.917-4.164-15.083,0l-64,64
	c-4.164,4.165-4.164,10.917,0,15.083l42.667,42.667c1.996,2.002,4.704,3.13,7.531,3.136h128c5.891,0.011,10.675-4.757,10.686-10.648
	C309.325,114.521,308.197,111.796,306.186,109.79z"/>
<g>
	<circle style="fill:#455A64;" cx="405.301" cy="458.675" r="53.333"/>
	<circle style="fill:#455A64;" cx="191.968" cy="458.675" r="53.333"/>
</g>
<path style="fill:#FFC107;" d="M498.634,110.28c-2.026-2.294-4.94-3.607-8-3.605h-384c-5.891,0.005-10.662,4.786-10.657,10.677
	c0.001,0.655,0.062,1.309,0.182,1.953l32,170.667c0.944,5.043,5.344,8.699,10.475,8.704h292.992
	c26.9,0.003,49.592-20.027,52.928-46.72l16.747-133.291C501.66,115.616,500.688,112.561,498.634,110.28z"/>
<path style="fill:#455A64;" d="M447.968,384.008H201.76c-35.561-0.074-66.163-25.156-73.216-60.011L76.554,64.008H21.301
	c-5.891,0-10.667-4.776-10.667-10.667s4.776-10.667,10.667-10.667h64c5.07-0.001,9.439,3.566,10.453,8.533l53.717,268.587
	c5.035,24.896,26.888,42.817,52.288,42.88h246.208c5.891,0,10.667,4.776,10.667,10.667S453.859,384.008,447.968,384.008z"/>
<g>
</g>
<g>
</g>
<g>
</g>
<g>
</g>
<g>
</g>
<g>
</g>
<g>
</g>
<g>
</g>
<g>
</g>
<g>
</g>
<g>
</g>
<g>
</g>
<g>
</g>
<g>
</g>
<g>
</g>
</svg>
