<?xml version="1.0" encoding="iso-8859-1"?>
<!-- Generator: Adobe Illustrator 19.0.0, SVG Export Plug-In . SVG Version: 6.00 Build 0)  -->
<svg version="1.1" id="Capa_1" xmlns="http://www.w3.org/2000/svg" xmlns:xlink="http://www.w3.org/1999/xlink" x="0px" y="0px"
	 viewBox="0 0 481.827 481.827" style="enable-background:new 0 0 481.827 481.827;" xml:space="preserve">
<g>
	<path style="fill:#8B5E3C;" d="M22.993,35.426l-12.4,46.32l211.04,56.56l39.2-39.2L22.993,35.426z"/>
	<path style="fill:#8B5E3C;" d="M458.833,201.826l12.4-46.32l-156.88-42l-39.12,39.12L458.833,201.826z"/>
</g>
<g>
	<path style="fill:#C49A6C;" d="M275.233,152.626l39.12-39.12l71.6-71.6l-34-33.92l-91.12,91.12l-39.2,39.2l-92.32,92.32l-48,48
		l-57.44,57.44l34,33.92l91.36-91.36l48-48L275.233,152.626z"/>
	<path style="fill:#C49A6C;" d="M10.603,427.492l448.191-120.092l12.423,46.365L23.026,473.856L10.603,427.492z"/>
</g>
<g>
	<path style="fill:#A97C50;" d="M8.913,230.626v48h72.4l48-48H8.913z"/>
	<path style="fill:#A97C50;" d="M149.233,278.626h323.68v-48h-275.68L149.233,278.626z"/>
</g>
<g>
	<path style="fill:#231F20;" d="M23.033,481.826c-1.403-0.003-2.781-0.369-4-1.064c-1.839-1.062-3.18-2.812-3.728-4.864
		l-12.424-46.4c-1.14-4.266,1.392-8.648,5.656-9.792l448.192-120.032c2.048-0.533,4.224-0.246,6.064,0.8
		c1.839,1.062,3.18,2.812,3.728,4.864l12.424,46.4c1.14,4.266-1.392,8.648-5.656,9.792L25.097,481.578
		C24.423,481.751,23.729,481.835,23.033,481.826z M20.409,433.122l8.28,30.912l432.728-115.928l-8.28-30.912L20.409,433.122z"/>
	<path style="fill:#231F20;" d="M472.913,222.626H216.545l61.08-61.08l179.136,48c0.676,0.182,1.372,0.273,2.072,0.272
		c1.403-0.003,2.781-0.369,4-1.064c1.839-1.062,3.18-2.812,3.728-4.864l12.4-46.32c1.14-4.266-1.392-8.648-5.656-9.792
		l-143.496-38.4l61.8-61.8c3.126-3.122,3.129-8.188,0.006-11.314c-0.002-0.002-0.004-0.004-0.006-0.006l-34-33.92
		c-3.123-3.118-8.181-3.118-11.304,0l-87.864,87.84L25.065,27.698c-4.267-1.145-8.655,1.387-9.8,5.654c0,0.001,0,0.001,0,0.002
		l-12.4,46.32c-1.14,4.266,1.392,8.648,5.656,9.792l197.656,52.976l-80.176,80.184H8.913c-4.418,0-8,3.582-8,8v48
		c0,4.418,3.582,8,8,8h53.088L18.217,330.41c-3.126,3.122-3.129,8.188-0.006,11.314c0.002,0.002,0.004,0.004,0.006,0.006l34,33.92
		c3.123,3.118,8.181,3.118,11.304,0l89.024-89.024h320.368c4.418,0,8-3.582,8-8v-48
		C480.913,226.208,477.332,222.626,472.913,222.626L472.913,222.626z M453.177,192.034l-162.488-43.552l26.056-26.048
		l144.688,38.728L453.177,192.034z M20.393,76.09l8.256-30.872l216.728,58.024l-26.136,26.144L20.393,76.09z M16.913,270.626v-32
		h93.088l-32,32H16.913z M57.865,358.682l-22.672-22.624l316.8-316.8l22.672,22.624L57.865,358.682z M464.913,270.626H168.545l32-32
		h264.368V270.626z"/>
</g>
<g>
</g>
<g>
</g>
<g>
</g>
<g>
</g>
<g>
</g>
<g>
</g>
<g>
</g>
<g>
</g>
<g>
</g>
<g>
</g>
<g>
</g>
<g>
</g>
<g>
</g>
<g>
</g>
<g>
</g>
</svg>
