<?xml version="1.0" encoding="iso-8859-1"?>
<!-- Generator: Adobe Illustrator 19.0.0, SVG Export Plug-In . SVG Version: 6.00 Build 0)  -->
<svg version="1.1" id="Capa_1" xmlns="http://www.w3.org/2000/svg" xmlns:xlink="http://www.w3.org/1999/xlink" x="0px" y="0px"
	 viewBox="0 0 481.827 481.827" style="enable-background:new 0 0 481.827 481.827;" xml:space="preserve">
<g>
	<g>
		<g>
			<path d="M466.521,305.338c-0.548-2.052-1.889-3.802-3.728-4.864c-1.84-1.046-4.016-1.333-6.064-0.8L8.537,419.706
				c-4.264,1.144-6.796,5.526-5.656,9.792l12.424,46.4c0.548,2.052,1.889,3.802,3.728,4.864c1.219,0.695,2.597,1.061,4,1.064
				c0.696,0.008,1.39-0.075,2.064-0.248L473.289,361.53c4.264-1.144,6.796-5.526,5.656-9.792L466.521,305.338z M28.689,464.034
				l-8.28-30.912l432.728-115.928l8.28,30.912L28.689,464.034z"/>
			<path d="M472.913,222.626H216.546l61.08-61.08l179.136,48c0.676,0.182,1.372,0.273,2.072,0.272c1.403-0.003,2.781-0.369,4-1.064
				c1.839-1.062,3.18-2.812,3.728-4.864l12.4-46.32c1.14-4.266-1.392-8.648-5.656-9.792l-143.496-38.4l61.8-61.8
				c3.126-3.122,3.129-8.188,0.006-11.314c-0.002-0.002-0.004-0.004-0.006-0.006l-34-33.92c-3.123-3.118-8.181-3.118-11.304,0
				l-87.864,87.84L25.065,27.698c-4.267-1.145-8.655,1.387-9.8,5.654c0,0.001,0,0.001,0,0.002l-12.4,46.32
				c-1.14,4.266,1.392,8.648,5.656,9.792l197.656,52.976l-80.176,80.184H8.913c-4.418,0-8,3.582-8,8v48c0,4.418,3.582,8,8,8h53.088
				L18.217,330.41c-3.126,3.122-3.129,8.188-0.006,11.314c0.002,0.002,0.004,0.004,0.006,0.006l34,33.92
				c3.123,3.118,8.181,3.118,11.304,0l89.024-89.024h320.368c4.418,0,8-3.582,8-8v-48
				C480.913,226.208,477.332,222.626,472.913,222.626z M461.434,161.162l-8.256,30.872l-162.488-43.552l26.056-26.048
				L461.434,161.162z M20.394,76.09l8.256-30.872l216.728,58.024l-26.136,26.144L20.394,76.09z M16.913,270.626v-32h93.088l-32,32
				H16.913z M57.866,358.682l-22.672-22.624l316.8-316.8l22.672,22.624L57.866,358.682z M464.913,270.626H168.546l32-32h264.368
				V270.626z"/>
		</g>
	</g>
</g>
<g>
</g>
<g>
</g>
<g>
</g>
<g>
</g>
<g>
</g>
<g>
</g>
<g>
</g>
<g>
</g>
<g>
</g>
<g>
</g>
<g>
</g>
<g>
</g>
<g>
</g>
<g>
</g>
<g>
</g>
</svg>
